<?xml version="1.0" encoding="UTF-8" standalone="no"?>
<!-- Created with Inkscape (http://www.inkscape.org/) -->

<svg
   xmlns:dc="http://purl.org/dc/elements/1.1/"
   xmlns:cc="http://creativecommons.org/ns#"
   xmlns:rdf="http://www.w3.org/1999/02/22-rdf-syntax-ns#"
   xmlns:svg="http://www.w3.org/2000/svg"
   xmlns="http://www.w3.org/2000/svg"
   xmlns:xlink="http://www.w3.org/1999/xlink"
   xmlns:sodipodi="http://sodipodi.sourceforge.net/DTD/sodipodi-0.dtd"
   xmlns:inkscape="http://www.inkscape.org/namespaces/inkscape"
   width="716.88635"
   height="716.88635"
   id="svg3248"
   version="1.1"
   inkscape:version="0.48.4 r9939"
   sodipodi:docname="memgator_logo.svg"
   inkscape:export-filename="/home/salam/Pictures/memgator/memgator_logo.png"
   inkscape:export-xdpi="300.04755"
   inkscape:export-ydpi="300.04755">
  <defs
     id="defs3250">
    <linearGradient
       y2="-0.085886657"
       x2="0.99056566"
       y1="0.086972341"
       x1="0.0086741429"
       gradientTransform="matrix(236.78704,338.16694,-338.16694,236.78704,138.49398,103.80403)"
       id="linearGradient6297-9"
       xlink:href="#Gradient-9"
       inkscape:collect="always" />
    <linearGradient
       gradientUnits="userSpaceOnUse"
       id="Gradient-9"
       x2="1"
       x1="0">
      <stop
         id="stop3385-2"
         stop-color="#666"
         offset="0" />
      <stop
         id="stop3387-1"
         stop-color="#333"
         offset="1" />
    </linearGradient>
    <linearGradient
       y2="-0.085886657"
       x2="0.99056566"
       y1="0.086972341"
       x1="0.0086741429"
       gradientTransform="matrix(236.78704,338.16694,-338.16694,236.78704,138.49398,103.80403)"
       id="linearGradient3246"
       xlink:href="#Gradient-9"
       inkscape:collect="always" />
  </defs>
  <sodipodi:namedview
     id="base"
     pagecolor="#ffffff"
     bordercolor="#666666"
     borderopacity="1.0"
     inkscape:pageopacity="0.0"
     inkscape:pageshadow="2"
     inkscape:zoom="0.98994949"
     inkscape:cx="243.68932"
     inkscape:cy="319.38524"
     inkscape:document-units="px"
     inkscape:current-layer="layer1"
     showgrid="false"
     inkscape:window-width="1257"
     inkscape:window-height="950"
     inkscape:window-x="576"
     inkscape:window-y="46"
     inkscape:window-maximized="0"
     fit-margin-top="2"
     fit-margin-left="2"
     fit-margin-right="2"
     fit-margin-bottom="2"
     borderlayer="false" />
  <metadata
     id="metadata3253">
    <rdf:RDF>
      <cc:Work
         rdf:about="">
        <dc:format>image/svg+xml</dc:format>
        <dc:type
           rdf:resource="http://purl.org/dc/dcmitype/StillImage" />
        <dc:title />
      </cc:Work>
    </rdf:RDF>
  </metadata>
  <g
     inkscape:label="Layer 1"
     inkscape:groupmode="layer"
     id="layer1"
     transform="translate(-13.848684,-13.210869)">
    <circle
       transform="matrix(2.1617291,0,0,2.1617291,-183.69842,-218.25482)"
       id="circle3417-4"
       r="148.20773"
       cy="272.88751"
       cx="256.88751"
       sodipodi:cx="256.88751"
       sodipodi:cy="272.88751"
       sodipodi:rx="148.20773"
       sodipodi:ry="148.20773"
       style="fill:url(#linearGradient3246);stroke:none"
       d="m 405.09525,272.88751 c 0,81.85287 -66.35487,148.20774 -148.20774,148.20774 -81.85287,0 -148.20773,-66.35487 -148.20773,-148.20774 0,-81.85287 66.35486,-148.20773 148.20773,-148.20773 81.85287,0 148.20774,66.35486 148.20774,148.20773 z" />
    <path
       id="path3425"
       d="m 372.28581,723.92827 c -196.17234,0 -354.275393,-158.11511 -354.275393,-354.28753 0,-195.30859 158.941993,-354.275385 354.275393,-354.275385 196.16038,0 354.28752,158.115105 354.28752,354.275385 0,196.17242 -158.12714,354.28753 -354.28752,354.28753 m 19.4484,-668.815376 c 0,16.054626 4.23218,43.956408 -19.4484,43.956408 -23.66843,0 -19.44845,-27.901782 -19.44845,-43.956408 C 193.88283,65.256676 67.901735,191.23776 57.733877,350.20463 c 16.066657,0 43.967723,-4.23247 43.967723,19.43611 0,23.68071 -27.901066,19.46023 -43.967723,19.46023 10.167858,158.9549 136.148953,284.93597 295.103483,295.0918 0,-16.06667 -4.21998,-43.98048 19.44845,-43.98048 23.68058,0 19.4484,27.91381 19.4484,43.98048 158.1143,-10.15583 284.94707,-136.97655 295.10364,-295.0918 -16.09146,0 -43.98049,4.22048 -43.98049,-19.46023 0,-23.66858 27.88903,-19.43611 43.98049,-19.43611 C 677.52094,191.23776 550.70025,65.256676 391.73421,55.112894 m 13.5249,354.275576 0,210.5362 -52.42175,0 0,-210.5362 c -5.0714,-2.5299 -10.1435,-6.76245 -14.37596,-10.99504 l -153.88272,41.42614 -13.53711,-50.7186 153.90703,-41.43831 c 5.91107,-25.37144 28.72805,-43.11683 54.08714,-43.11683 31.29479,0 55.82749,25.35932 55.82749,55.80265 0,20.28738 -10.99563,39.74763 -29.60412,49.03999 z"
       inkscape:connector-curvature="0"
       style="fill:#cccccc;stroke:none" />
    <path
       id="path3427"
       d="m 372.2858,725.93551 c -196.17233,0 -354.275387,-158.11512 -354.275387,-354.28753 0,-195.30859 158.941997,-354.275382 354.275387,-354.275382 196.16039,0 354.28753,158.115112 354.28753,354.275382 0,196.17241 -158.12714,354.28753 -354.28753,354.28753 M 391.73421,57.120135 c 0,16.054615 4.23217,43.956405 -19.44841,43.956405 -23.66843,0 -19.44846,-27.90179 -19.44846,-43.956405 C 193.88282,67.263917 67.901735,193.245 57.733866,352.21187 c 16.066668,0 43.967734,-4.23248 43.967734,19.43611 0,23.68072 -27.901066,19.46024 -43.967734,19.46024 10.167869,158.95489 136.148954,284.93597 295.103474,295.09179 0,-16.06664 -4.21997,-43.98048 19.44846,-43.98048 23.68058,0 19.44841,27.91384 19.44841,43.98048 158.1143,-10.15582 284.94706,-136.97655 295.10363,-295.09179 -16.09146,0 -43.98049,4.22048 -43.98049,-19.46024 0,-23.66859 27.88903,-19.43611 43.98049,-19.43611 C 677.52093,193.245 550.70023,67.263917 391.73421,57.120135 m 13.5249,354.275575 0,210.53621 -52.42177,0 0,-210.53621 c -5.07138,-2.5299 -10.1435,-6.76245 -14.37595,-10.99505 L 184.57867,441.82681 171.04157,391.10822 324.9486,349.6699 c 5.91106,-25.37144 28.72804,-43.11684 54.08714,-43.11684 31.29477,0 55.82748,25.35932 55.82748,55.80266 0,20.28738 -10.99563,39.74762 -29.60411,49.03999 z"
       inkscape:connector-curvature="0"
       style="fill:none;stroke:#ffffff;stroke-width:4.32345819;stroke-linecap:round;stroke-linejoin:round" />
    <g
       id="g3543"
       transform="matrix(0.78992102,0,0,0.77619901,369.09833,349.573)">
      <path
         id="path3551"
         d="m 37.701,180.366 c -6.229,0.655 -11.809,-3.871 -12.465,-10.108 -0.656,-6.238 3.862,-11.825 10.091,-12.479 1.456,-0.153 2.872,-0.013 4.203,0.355 -0.407,-8.924 -0.016,-17.19 1.119,-24.897 -24.907,0.93 -36.32,15.463 -37.555,33.129 -1.31,18.742 11.141,37.468 34.561,39.105 3.651,0.255 6.895,0.049 9.774,-0.552 -2.455,-9.115 -4.338,-17.702 -5.655,-25.792 -1.234,0.647 -2.604,1.085 -4.073,1.239 z"
         stroke-miterlimit="10"
         inkscape:connector-curvature="0"
         style="fill:#d0b698;stroke:#000000;stroke-width:6;stroke-linecap:round;stroke-linejoin:round;stroke-miterlimit:10" />
      <path
         id="path3553"
         d="m 35.327,157.778 c -6.229,0.655 -10.747,6.242 -10.091,12.479 0.656,6.237 6.237,10.763 12.465,10.108 1.469,-0.154 2.839,-0.592 4.073,-1.239 -1.204,-7.39 -1.942,-14.372 -2.244,-20.994 -1.331,-0.367 -2.747,-0.507 -4.203,-0.354 z"
         inkscape:connector-curvature="0" />
      <path
         id="path3555"
         d="m 309.592,37.468 c 0.511,-0.68 1.096,-1.317 1.774,-1.887 4.798,-4.025 11.957,-3.395 15.987,1.41 3.967,4.729 3.42,11.73 -1.172,15.788 5.61,5.714 11.18,11.979 16.583,18.841 1.701,-1.844 3.317,-4.046 4.827,-6.66 11.736,-20.332 3.176,-41.127 -13.096,-50.521 -14.119,-8.151 -30.859,-7.664 -44.898,8.169 1.848,1.18 3.665,2.401 5.448,3.66 4.725,3.335 9.604,7.07 14.547,11.2 z"
         stroke-miterlimit="10"
         inkscape:connector-curvature="0"
         style="fill:#d0b698;stroke:#000000;stroke-width:6;stroke-linecap:round;stroke-linejoin:round;stroke-miterlimit:10" />
      <path
         id="path3557"
         d="m 327.354,36.992 c -4.03,-4.805 -11.189,-5.436 -15.987,-1.41 -0.679,0.57 -1.264,1.207 -1.774,1.887 5.49,4.587 11.059,9.677 16.59,15.312 4.591,-4.059 5.138,-11.061 1.171,-15.789 z"
         inkscape:connector-curvature="0" />
      <path
         id="path3561"
         d="M 382.528,136.31654 C 366.48199,103.22317 362.533,96.725 342.765,71.621 337.362,64.76 331.792,58.494 326.182,52.78 c -5.531,-5.635 -11.1,-10.724 -16.59,-15.312 -4.943,-4.13 -9.822,-7.865 -14.546,-11.199 -1.783,-1.259 -3.601,-2.479 -5.448,-3.66 -38.035,-24.282 -89.932,-31.174 -159.703,9.577 -48.626,28.401 -82.414,54.617 -89.247,101.05 -1.134,7.708 -1.525,15.973 -1.119,24.897 0.302,6.622 1.041,13.604 2.244,20.994 1.317,8.089 3.201,16.676 5.655,25.792 2.433,9.035 5.425,18.587 9.033,28.736 12.141,34.149 41.161013,63.80446 53.70401,82.81146 15.36362,19.258 40.56148,40.86381 47.22079,80.2112 C 293.29968,335.28874 359.55156,223.5817 382.528,136.31654 z"
         stroke-miterlimit="10"
         inkscape:connector-curvature="0"
         style="fill:#d0b698;stroke:#000000;stroke-width:6;stroke-linecap:round;stroke-linejoin:round;stroke-miterlimit:10"
         sodipodi:nodetypes="ccccccscccccccc" />
      <ellipse
         id="ellipse3563"
         ry="51.299999"
         rx="52.200001"
         cy="67.681"
         cx="235.646"
         stroke-miterlimit="10"
         sodipodi:cx="235.646"
         sodipodi:cy="67.681"
         sodipodi:rx="52.200001"
         sodipodi:ry="51.299999"
         style="fill:#ffffff;stroke:#000000;stroke-width:6;stroke-linecap:round;stroke-linejoin:round;stroke-miterlimit:10"
         d="m 287.846,67.681 c 0,28.332207 -23.37074,51.3 -52.2,51.3 -28.82927,0 -52.2,-22.967793 -52.2,-51.3 0,-28.332207 23.37073,-51.299999 52.2,-51.299999 28.82926,0 52.2,22.967792 52.2,51.299999 z" />
      <ellipse
         id="ellipse3565"
         ry="51.299999"
         rx="52.200001"
         cy="127.081"
         cx="118.851"
         stroke-miterlimit="10"
         sodipodi:cx="118.851"
         sodipodi:cy="127.081"
         sodipodi:rx="52.200001"
         sodipodi:ry="51.299999"
         style="fill:#ffffff;stroke:#000000;stroke-width:6;stroke-linecap:round;stroke-linejoin:round;stroke-miterlimit:10"
         d="m 171.051,127.081 c 0,28.33221 -23.37074,51.3 -52.2,51.3 -28.829266,0 -52.200003,-22.96779 -52.200003,-51.3 0,-28.332206 23.370737,-51.299998 52.200003,-51.299998 28.82926,0 52.2,22.967792 52.2,51.299998 z" />
      <circle
         id="circle3567"
         r="16.200001"
         cy="59.581001"
         cx="263.996"
         sodipodi:cx="263.996"
         sodipodi:cy="59.581001"
         sodipodi:rx="16.200001"
         sodipodi:ry="16.200001"
         d="m 280.196,59.581001 c 0,8.947014 -7.25298,16.200001 -16.2,16.200001 -8.94701,0 -16.2,-7.252987 -16.2,-16.200001 0,-8.947013 7.25299,-16.2 16.2,-16.2 8.94702,0 16.2,7.252987 16.2,16.2 z" />
      <circle
         id="circle3569"
         r="3.5999999"
         cy="60.480999"
         cx="272.09601"
         sodipodi:cx="272.09601"
         sodipodi:cy="60.480999"
         sodipodi:rx="3.5999999"
         sodipodi:ry="3.5999999"
         style="fill:#ffffff"
         d="m 275.69601,60.480999 c 0,1.988225 -1.61178,3.6 -3.6,3.6 -1.98823,0 -3.6,-1.611775 -3.6,-3.6 0,-1.988225 1.61177,-3.6 3.6,-3.6 1.98822,0 3.6,1.611775 3.6,3.6 z" />
      <circle
         id="circle3571"
         r="16.200001"
         cy="116.281"
         cx="146.095"
         sodipodi:cx="146.095"
         sodipodi:cy="116.281"
         sodipodi:rx="16.200001"
         sodipodi:ry="16.200001"
         d="m 162.295,116.281 c 0,8.94701 -7.25299,16.2 -16.2,16.2 -8.94701,0 -16.2,-7.25299 -16.2,-16.2 0,-8.94702 7.25299,-16.2 16.2,-16.2 8.94701,0 16.2,7.25298 16.2,16.2 z" />
      <circle
         id="circle3573"
         r="3.5999999"
         cy="117.181"
         cx="154.196"
         sodipodi:cx="154.196"
         sodipodi:cy="117.181"
         sodipodi:rx="3.5999999"
         sodipodi:ry="3.5999999"
         style="fill:#ffffff"
         d="m 157.796,117.181 c 0,1.98822 -1.61178,3.6 -3.6,3.6 -1.98823,0 -3.6,-1.61178 -3.6,-3.6 0,-1.98823 1.61177,-3.6 3.6,-3.6 1.98822,0 3.6,1.61177 3.6,3.6 z" />
      <path
         id="path3575"
         d="m 213.083,169.078 c -9.664,4.506 -9.3,9.495 -16.832,14.72 2.005,5.293 4.714,12.359 7.977,20.67 7.355,18.729 28.819,4.246 23.938,-6.716 -3.579,-8.041 -9.976,-22.408 -13.135,-29.504 -0.623,0.243 -1.268,0.513 -1.948,0.83 z"
         stroke-miterlimit="10"
         inkscape:connector-curvature="0"
         style="fill:#ffffff;stroke:#000000;stroke-width:6;stroke-linecap:round;stroke-linejoin:round;stroke-miterlimit:10" />
      <path
         id="path3577"
         d="m 238.975,164.35 c -11.064,4.464 -14.537,0.238 -23.943,3.898 3.159,7.096 9.556,21.463 13.135,29.504 4.881,10.962 30.008,4.701 21.009,-13.295 -4.086,-8.173 -7.59,-15.04 -10.201,-20.107 z"
         stroke-miterlimit="10"
         inkscape:connector-curvature="0"
         style="fill:#ffffff;stroke:#000000;stroke-width:6;stroke-linecap:round;stroke-linejoin:round;stroke-miterlimit:10" />
      <path
         id="path3579"
         d="m 318.82836,283.69776 c -7.1311,-3.34111 -20.48583,-5.20218 -32.76688,-3.94458 -1.13328,6.43224 -3.44271,12.77418 -8.06575,19.1007 10.25704,6.28578 20.10111,10.59816 28.15222,12.89531 7.80229,2.22447 13.85865,1.52299 17.89936,-6.08866 3.82849,-7.2119 3.05066,-18.08977 -5.21895,-21.96277 z"
         stroke-miterlimit="10"
         inkscape:connector-curvature="0"
         style="fill:#ffffff;stroke:#000000;stroke-width:6.43788147;stroke-linecap:round;stroke-linejoin:round;stroke-miterlimit:10" />
      <path
         id="path3581"
         d="m 260.15387,315.23126 c 8.16402,-5.48189 13.85865,-10.92413 17.84186,-16.37738 4.62304,-6.32652 6.93247,-12.66736 8.06575,-19.1007 0.89282,-5.06342 1.06428,-10.183 1.06428,-15.39729"
         stroke-miterlimit="10"
         inkscape:connector-curvature="0"
         style="fill:none;stroke:#000000;stroke-width:6.43788147;stroke-linecap:round;stroke-linejoin:round;stroke-miterlimit:10" />
      <path
         id="path3583"
         d="m 241.202,134.614 c -5.883,-2.508 -11.642,-2.739 -18.45,-1.058 -1.165,6.392 -7.955,13.579 -17.718,17.926 -9.39,4.181 -18.893,4.561 -24.525,1.549 -6.176,4.299 -9.948,9.01 -11.901,15.435 -3.831,12.607 6.071,24.543 16.988,20.563 4.838,-1.764 8.174,-3.511 10.656,-5.232 7.532,-5.225 7.168,-10.214 16.832,-14.72 0.68,-0.317 1.325,-0.587 1.949,-0.83 9.406,-3.66 12.879,0.566 23.943,-3.898 2.062,-0.832 4.381,-1.959 7.059,-3.503 10.066,-5.805 7.288,-21.062 -4.833,-26.232 z"
         stroke-miterlimit="10"
         inkscape:connector-curvature="0"
         style="fill:#ac967b;stroke:#000000;stroke-width:6;stroke-linecap:round;stroke-linejoin:round;stroke-miterlimit:10" />
      <path
         id="path3585"
         d="m 205.034,151.482 c 9.763,-4.347 16.553,-11.534 17.718,-17.926 0.352,-1.932 0.196,-3.792 -0.554,-5.479 -3.234,-7.265 -16.163,-8.566 -28.878,-2.906 -12.714,5.661 -20.399,16.141 -17.165,23.405 0.846,1.9 2.359,3.388 4.354,4.454 5.632,3.012 15.135,2.633 24.525,-1.548 z"
         inkscape:connector-curvature="0" />
      <path
         id="path3593"
         d="m 325.07142,302.40401 c -4.063,-1.998 -10.02,-4.748 -15.145,-6.359"
         stroke-miterlimit="10"
         inkscape:connector-curvature="0"
         style="fill:none;stroke:#000000;stroke-width:6;stroke-linecap:round;stroke-linejoin:round;stroke-miterlimit:10" />
    </g>
    <circle
       transform="matrix(0.56133813,0,0,0.54673533,369.87534,426.19273)"
       id="circle3569-2"
       r="3.5999999"
       cy="60.480999"
       cx="272.09601"
       sodipodi:cx="272.09601"
       sodipodi:cy="60.480999"
       sodipodi:rx="3.5999999"
       sodipodi:ry="3.5999999"
       style="fill:#ffffff"
       d="m 275.69601,60.480999 c 0,1.988225 -1.61178,3.6 -3.6,3.6 -1.98823,0 -3.6,-1.611775 -3.6,-3.6 0,-1.988225 1.61177,-3.6 3.6,-3.6 1.98822,0 3.6,1.611775 3.6,3.6 z" />
    <path
       sodipodi:type="arc"
       style="fill:#ffffff"
       id="path3699"
       sodipodi:cx="508.80246"
       sodipodi:cy="471.3035"
       sodipodi:rx="4.831038"
       sodipodi:ry="3.0620248"
       d="m 513.6335,471.3035 c 0,1.69111 -2.16293,3.06202 -4.83104,3.06202 -2.66811,0 -4.83104,-1.37091 -4.83104,-3.06202 0,-1.69111 2.16293,-3.06203 4.83104,-3.06203 2.66811,0 4.83104,1.37092 4.83104,3.06203 z"
       transform="matrix(1.0824392,-0.4912017,0.51589613,0.86339597,-259.42121,296.67362)" />
    <g
       style="font-size:46.83566666px;font-style:normal;font-variant:normal;font-weight:900;font-stretch:normal;line-height:125%;letter-spacing:0px;word-spacing:0px;fill:#cccccc;fill-opacity:1;stroke:none;font-family:Orbitron;-inkscape-font-specification:Orbitron Heavy"
       id="text3024">
      <path
         d="m 192.2291,243.14764 0.0703,-2.39062 c 0.0468,-1.49999 0.18743,-3.14061 0.42187,-4.92188 l 0.5625,-4.14843 c 0.11713,-0.98436 0.23431,-1.87498 0.35157,-2.67188 -2.22663,2.43752 -4.0196,4.33596 -5.37891,5.69531 l -4.04297,3.9375 c -9.04692,8.46095 -14.43754,12.69141 -16.17187,12.69141 -2.55473,0 -5.23832,-0.55078 -8.05079,-1.65234 -1.52346,-0.60938 -2.39065,-1.24219 -2.60156,-1.89844 -0.32815,-0.82031 -0.49221,-1.93359 -0.49219,-3.33984 -2e-5,-1.42968 0.0468,-2.74218 0.14063,-3.9375 0.0937,-1.1953 0.21091,-2.3789 0.35156,-3.55079 0.1406,-1.19529 0.28122,-2.33201 0.42188,-3.41015 0.16403,-1.10155 0.29294,-2.06248 0.38672,-2.88281 0.23434,-1.85154 0.28122,-2.77732 0.14062,-2.77735 l -13.07812,16.06641 c -6.16408,7.24219 -9.66798,11.24999 -10.51172,12.02344 -1.8047,1.64061 -3.79688,2.46093 -5.97657,2.46093 -1.07812,0 -1.96874,-0.26953 -2.67187,-0.80859 -0.70312,-0.53907 -1.05468,-1.20704 -1.05469,-2.00391 10e-6,-1.59375 0.66797,-3.25781 2.00391,-4.99218 l 31.21875,-39.69141 3.65625,-4.39453 c 4.35934,-5.13276 7.21871,-7.69917 8.57812,-7.69922 1.8984,5e-5 3.70308,0.48052 5.41407,1.44141 1.52338,0.8438 2.39057,1.66411 2.60156,2.46093 0.0937,0.30474 -0.10552,1.72271 -0.59766,4.25391 l -1.23047,6.64453 c -1.38286,7.40628 -2.07426,12.18753 -2.07422,14.34375 -4e-5,2.13283 0.24605,3.19924 0.73829,3.19922 1.5937,2e-5 4.66401,-2.61326 9.21093,-7.83984 l 11.39063,-13.64063 c 2.50774,-2.88277 4.1718,-4.52339 4.99219,-4.92187 0.2343,-0.11715 0.57414,-0.17574 1.01953,-0.17579 0.44524,5e-5 0.93742,0.0586 1.47656,0.17579 0.56242,0.11723 1.12492,0.26957 1.6875,0.45703 0.58586,0.18754 1.14836,0.4102 1.6875,0.66797 0.53898,0.25785 1.01945,0.52738 1.44141,0.80859 0.91398,0.60942 1.35929,1.11332 1.33593,1.51172 -8e-5,0.37504 -0.0938,1.20707 -0.28125,2.49609 -0.18758,1.26567 -0.42195,2.81254 -0.70312,4.64063 -1.94539,12.11721 -2.96492,19.14845 -3.0586,21.09375 -0.0704,1.94532 0.12883,3.16407 0.59766,3.65625 0.49211,0.4922 1.20695,0.73829 2.14453,0.73828 1.71086,1e-5 4.19523,-1.01952 7.45313,-3.0586 2.20303,-1.38279 4.01944,-2.0742 5.44922,-2.07421 1.45303,1e-5 2.17959,0.69142 2.17968,2.07421 -9e-5,1.4297 -0.77353,3.16408 -2.32031,5.20313 -2.22665,2.95313 -5.55477,5.625 -9.98437,8.01562 -3.72665,1.99219 -7.2657,2.98828 -10.61719,2.98829 -5.48444,-1e-5 -8.22663,-3.6211 -8.22656,-10.86329"
         style="font-size:72px;font-weight:bold;font-family:Sarina;-inkscape-font-specification:Sarina Bold"
         id="path3014" />
      <path
         d="m 273.05331,225.85077 c 1.12495,2e-5 1.68745,0.63284 1.6875,1.89844 -5e-5,0.84377 -0.29301,1.91017 -0.8789,3.19922 -0.56255,1.26564 -1.38286,2.46095 -2.46094,3.58593 -1.07817,1.10158 -2.32036,2.25002 -3.72656,3.44532 -1.38286,1.19532 -3.01176,2.44923 -4.88672,3.76171 -1.8516,1.31251 -3.90238,2.61329 -6.15234,3.90235 -2.25003,1.28907 -4.64066,2.44922 -7.17188,3.48047 -5.60158,2.29687 -11.02736,3.44531 -16.27734,3.44531 -4.00782,0 -7.51172,-1.04297 -10.51172,-3.12891 -3.14062,-2.17968 -4.71093,-4.82812 -4.71094,-7.94531 1e-5,-4.89842 2.63672,-9.55076 7.91016,-13.95703 4.54687,-3.79685 9.90233,-6.73825 16.0664,-8.82422 3.74998,-1.26559 6.92576,-1.8984 9.52735,-1.89844 2.10934,4e-5 3.89059,0.51566 5.34375,1.54688 1.54684,1.12503 2.32027,2.63675 2.32031,4.53515 -4e-5,2.97659 -2.3555,6.26956 -7.06641,9.87891 -0.75002,0.58596 -1.42971,1.07814 -2.03906,1.47656 l -1.26562,0.84375 c -2.34378,1.64064 -5.90627,3.48048 -10.6875,5.51953 1.47654,0.77345 2.84764,1.16017 4.11328,1.16016 1.28904,1e-5 2.43748,-0.15233 3.44531,-0.45703 1.03123,-0.30468 2.19138,-0.73827 3.48047,-1.30078 1.28903,-0.56249 2.66013,-1.23046 4.11328,-2.00391 1.47653,-0.79686 2.96481,-1.66405 4.46484,-2.60156 3.35153,-2.08592 6.25778,-4.21873 8.71875,-6.39844 1.28902,-1.19529 2.92965,-2.1445 4.92188,-2.84765 0.6562,-0.21092 1.23042,-0.31639 1.72265,-0.31641 m -38.77734,9.87891 1.93359,-0.98438 c 0.6328,-0.32811 1.1953,-0.63279 1.6875,-0.91406 4.73436,-2.71873 7.42967,-4.39451 8.08594,-5.02735 0.65623,-0.63278 0.98435,-1.06638 0.98438,-1.30078 -3e-5,-0.25779 -0.0703,-0.55075 -0.21094,-0.8789 -0.14065,-0.3281 -0.32815,-0.62107 -0.5625,-0.87891 -0.56252,-0.65622 -1.16018,-0.98435 -1.79297,-0.98437 -0.63283,2e-5 -1.33596,0.11721 -2.10937,0.35156 -0.75002,0.2344 -1.51174,0.56252 -2.28516,0.98437 -0.77345,0.39847 -1.52345,0.89065 -2.25,1.47657 -0.70314,0.56252 -1.32423,1.17189 -1.86328,1.82812 -1.2422,1.47658 -1.86329,2.75393 -1.86328,3.83203 -1e-5,1.07814 0.082,1.91017 0.24609,2.4961"
         style="font-size:72px;font-weight:bold;font-family:Sarina;-inkscape-font-specification:Sarina Bold"
         id="path3016" />
      <path
         d="m 333.06503,232.42499 c -6e-5,3.44533 1.07806,5.16798 3.23438,5.16797 1.49993,1e-5 4.08977,-1.31249 7.76953,-3.9375 3.32804,-2.46092 5.30851,-4.00779 5.94141,-4.64063 1.45304,-1.21872 2.97647,-1.8281 4.57031,-1.82812 0.6796,2e-5 1.25381,0.2344 1.72265,0.70312 0.4921,0.44534 0.73819,1.12502 0.73829,2.03906 -1e-4,0.91409 -0.22275,1.74612 -0.66797,2.4961 -0.44541,0.75002 -1.01962,1.52345 -1.72266,2.32031 -0.67977,0.79689 -1.53524,1.68752 -2.56641,2.67188 -1.00789,0.98438 -2.16805,2.02735 -3.48046,3.1289 -1.31259,1.07814 -2.75399,2.15626 -4.32422,3.23438 -1.54695,1.07813 -3.15242,2.05078 -4.81641,2.91797 -3.75007,1.92187 -7.13678,2.88281 -10.16016,2.88281 -3.46881,0 -5.82427,-1.57031 -7.0664,-4.71094 -0.72662,-1.80468 -1.0899,-3.97265 -1.08985,-6.50391 l -10.23046,6.92579 c -7.00785,4.92187 -11.17973,7.53515 -12.51563,7.83984 -0.67972,0.16406 -1.37112,0.24609 -2.07422,0.24609 -0.67972,0 -1.32425,-0.0703 -1.93359,-0.21093 -0.6094,-0.11719 -1.14847,-0.32813 -1.61719,-0.63282 -1.07815,-0.63281 -1.61721,-1.57031 -1.61719,-2.8125 -2e-5,-0.49218 0.3281,-1.68749 0.98438,-3.58593 l 3.02344,-8.29688 c 0.93747,-2.67186 1.40622,-4.27733 1.40625,-4.81641 -3e-5,-0.18748 -0.11722,-0.28123 -0.35157,-0.28125 -0.2344,2e-5 -0.668,0.24612 -1.30078,0.73829 -0.63284,0.4922 -1.39456,1.12501 -2.28515,1.89843 l -8.36719,7.3125 -4.39453,3.65625 c -4.50001,3.58594 -8.16798,5.37891 -11.00391,5.37891 -1.33594,0 -2.68359,-0.59766 -4.04297,-1.79297 -1.47656,-1.26562 -2.21484,-2.78906 -2.21484,-4.57031 0,-1.78124 0.17578,-3.72655 0.52734,-5.83594 0.32813,-2.10936 0.8086,-4.1367 1.44141,-6.08203 0.63281,-1.96873 1.41797,-3.80857 2.35547,-5.51953 0.9375,-1.73435 2.0039,-3.23435 3.19922,-4.5 2.57811,-2.7656 5.61327,-4.14841 9.10546,-4.14844 3.51561,3e-5 5.27342,1.03128 5.27344,3.09375 -2e-5,0.89065 -0.48048,2.25003 -1.4414,4.07813 -2.03908,4.03127 -3.05861,6.21095 -3.0586,6.53906 -1e-5,0.3047 0.0937,0.5508 0.28125,0.73828 0.21093,0.16408 0.43358,0.24611 0.66797,0.24609 0.49217,2e-5 1.1953,-0.39842 2.10938,-1.19531 6.02341,-5.27341 9.80856,-8.54294 11.35546,-9.80859 1.57029,-1.2656 3.082,-2.37888 4.53516,-3.33985 3.32809,-2.17965 5.97652,-3.26949 7.94531,-3.26953 1.61715,4e-5 2.92965,0.25785 3.9375,0.77344 1.75777,0.9141 2.63667,1.94534 2.63672,3.09375 -5e-5,1.14847 -0.16411,2.44925 -0.49219,3.90234 -0.30473,1.45315 -0.64457,2.8594 -1.01953,4.21875 l -1.05468,3.58594 c -0.32817,1.03127 -0.49224,1.82814 -0.49219,2.39063 -5e-5,0.53907 0.23433,0.80861 0.70312,0.80859 1.12496,2e-5 3.36324,-1.59373 6.71485,-4.78125 l 3.41015,-3.19922 c 3.91401,-3.5156 6.87885,-5.27341 8.89453,-5.27344 0.96088,3e-5 1.81634,0.37503 2.56641,1.125 1.31243,1.31253 1.96868,2.46097 1.96875,3.44532 -7e-5,0.53908 -0.18757,1.26564 -0.5625,2.17968 -0.70319,1.71096 -1.05475,2.97659 -1.05469,3.79688"
         style="font-size:72px;font-weight:bold;font-family:Sarina;-inkscape-font-specification:Sarina Bold"
         id="path3018" />
      <path
         d="m 374.61972,235.62421 c -2e-5,2.15626 2.42575,3.23438 7.27734,3.23437 6.56247,1e-5 12.85543,-1.16014 18.87891,-3.48047 1.89839,-0.72654 3.83198,-1.52342 5.80078,-2.39062 l 3.97266,-2.32031 c 4.289,-2.43748 7.33587,-3.65623 9.14062,-3.65625 0.77337,2e-5 1.38274,0.11721 1.82813,0.35156 1.1718,0.37502 2.1093,0.97268 2.8125,1.79297 1.28898,1.50002 1.93352,2.64845 1.93359,3.44531 -7e-5,0.77345 -0.19929,1.78127 -0.59765,3.02344 -0.39852,1.21876 -0.93758,2.5547 -1.61719,4.00781 -0.67976,1.4297 -1.46492,2.91798 -2.35547,4.46484 -0.8907,1.54688 -1.83991,3.02344 -2.84766,4.42969 -2.25006,3.21094 -4.25397,5.53125 -6.01172,6.96094 -0.65631,0.82031 -1.4649,1.73437 -2.42578,2.74219 -0.96099,1.0078 -2.28521,2.07421 -3.97265,3.19921 -1.66412,1.14843 -3.41021,2.15624 -5.23828,3.02344 -1.80474,0.89061 -3.6563,1.65233 -5.55469,2.28516 -1.87505,0.65623 -3.67973,1.19529 -5.41406,1.61719 -3.32817,0.82029 -5.89457,1.23045 -7.69922,1.23046 -1.78128,-1e-5 -3.08206,-0.36329 -3.90235,-1.08984 -0.7969,-0.70314 -1.19534,-1.60548 -1.19531,-2.70703 -3e-5,-1.07814 0.37497,-2.15626 1.125,-3.23438 0.77341,-1.07813 1.80466,-2.1211 3.09375,-3.1289 1.31247,-1.00782 2.82418,-1.98048 4.53516,-2.91797 1.73433,-0.91407 3.55074,-1.78125 5.44922,-2.60156 3.44526,-1.5 7.27729,-2.84766 11.49609,-4.04297 2.39057,-3.28125 4.52338,-6.63281 6.39844,-10.05469 l -1.72266,0.98438 c -0.58599,0.30469 -1.16021,0.58594 -1.72266,0.84375 -4.24224,2.55469 -9.5977,4.82813 -16.0664,6.82031 -7.68753,2.36719 -15.01175,3.55078 -21.97266,3.55078 -3.91407,0 -7.01954,-1.30078 -9.3164,-3.90234 -2.08595,-2.36719 -3.12892,-5.36718 -3.12891,-9 -10e-6,-3.84374 2.58983,-7.98045 7.76953,-12.41016 4.54686,-3.8906 10.6992,-7.67575 18.45703,-11.35547 7.03121,-3.37496 14.30855,-6.14058 21.83203,-8.29687 7.42963,-2.15621 13.42962,-3.23433 18,-3.23438 2.69524,5e-5 4.52336,0.91411 5.48438,2.74219 0.37492,0.67973 0.56242,1.65239 0.5625,2.91797 -8e-5,1.24223 -0.46883,2.35551 -1.40625,3.33984 -0.93758,0.98441 -2.15633,1.75785 -3.65625,2.32031 -2.69538,1.03129 -6.00007,1.54691 -9.91406,1.54688 -3.91413,3e-5 -7.45318,-0.23434 -10.61719,-0.70313 -4.45317,1.45316 -8.98833,3.58597 -13.60547,6.39844 -3.86722,2.34378 -7.20706,4.87502 -10.01953,7.59375 -2.57815,2.48439 -3.86721,4.37111 -3.86719,5.66016"
         style="font-size:72px;font-weight:bold;font-family:Sarina;-inkscape-font-specification:Sarina Bold"
         id="path3020" />
      <path
         d="m 494.46738,225.28827 c 0.74993,3e-5 1.12493,0.63284 1.125,1.89844 -7e-5,2.17971 -1.5235,5.00392 -4.57032,8.47265 l -2.0039,2.03907 c -6.07036,6.07032 -11.78911,10.11328 -17.15625,12.1289 -3.32816,1.24219 -5.71878,1.1836 -7.17188,-0.17578 -1.19534,-1.14843 -2.14456,-2.99999 -2.84765,-5.55469 l -0.84375,-3.05859 -7.48828,4.60547 -4.32422,2.46094 c -5.15626,2.8125 -9.02345,4.21874 -11.60157,4.21875 -3.30468,-1e-5 -6.05859,-1.27735 -8.26171,-3.83204 -2.10937,-2.41405 -3.16406,-5.21483 -3.16407,-8.40234 1e-5,-3.14061 1.25392,-5.94139 3.76172,-8.40234 3.58594,-3.5156 9.24609,-6.73826 16.98047,-9.66797 7.31248,-2.74216 13.21872,-4.11325 17.71875,-4.11328 1.52341,3e-5 2.28512,0.75003 2.28516,2.25 -4e-5,1.03128 -0.19926,1.80471 -0.59766,2.32031 -0.39847,0.51565 -1.21878,1.043 -2.46094,1.58203 l -4.42968,1.89844 c -6.56252,2.74221 -11.36721,5.58986 -14.41407,8.54297 -0.8672,0.82033 -1.30079,1.6172 -1.30078,2.39062 -1e-5,0.77345 0.62108,1.16017 1.86328,1.16016 1.21874,1e-5 4.05467,-1.31249 8.50782,-3.9375 l 2.91796,-1.72266 c 4.52341,-2.71873 8.30857,-4.0781 11.35547,-4.07812 2.57809,2e-5 4.28903,1.13674 5.13282,3.41015 0.21089,0.6094 0.41011,1.23049 0.59765,1.86328 0.18746,0.6094 0.37496,1.16018 0.5625,1.65235 0.42184,1.14845 0.79683,1.72267 1.125,1.72265 0.35152,2e-5 0.84371,-0.16404 1.47656,-0.49218 0.63277,-0.35155 1.32418,-0.78514 2.07422,-1.30078 0.77339,-0.53905 1.57027,-1.12499 2.39063,-1.75782 l 4.2539,-3.41015 c 3.77339,-3.1406 6.60932,-4.71091 8.50782,-4.71094"
         style="font-size:72px;font-weight:bold;font-family:Sarina;-inkscape-font-specification:Sarina Bold"
         id="path3022" />
      <path
         d="m 526.108,227.60858 c 2.29684,3e-5 3.44527,0.7969 3.44531,2.39063 -4e-5,1.52345 -1.07816,3.4922 -3.23437,5.90625 l -1.72266,1.79297 c -2.08597,2.13282 -4.52347,4.23047 -7.3125,6.29296 -2.76565,2.06251 -5.20315,3.69141 -7.3125,4.88672 -4.89845,2.71875 -9.33985,4.07813 -13.32422,4.07813 -3.75,0 -6.80859,-1.125 -9.17578,-3.375 -2.03906,-1.94531 -3.05859,-3.99609 -3.05859,-6.15235 0,-2.15624 0.21094,-4.30076 0.63281,-6.43359 0.42188,-2.1328 0.97266,-4.21873 1.65235,-6.25781 1.35937,-4.14841 2.84765,-7.67575 4.46484,-10.58203 0.42187,-0.79685 0.63281,-1.31247 0.63281,-1.54688 l -4.53515,0 c -1.71094,3e-5 -3.03516,-0.3984 -3.97266,-1.19531 -0.9375,-0.79684 -1.40625,-1.69918 -1.40625,-2.70703 0,-1.00778 0.1875,-1.74606 0.5625,-2.21485 0.375,-0.46871 0.84375,-0.80855 1.40625,-1.01953 0.79688,-0.32808 1.96875,-0.49214 3.51562,-0.49218 l 8.61329,0.0351 c 0.18749,-0.0703 0.56249,-0.57418 1.125,-1.51172 l 2.14453,-3.6914 c 0.91405,-1.64058 1.82811,-2.84761 2.74218,-3.6211 0.93749,-0.77338 2.02733,-1.1601 3.26954,-1.16015 1.2656,5e-5 2.32029,0.11723 3.16406,0.35156 0.86716,0.23442 1.59373,0.52739 2.17969,0.87891 1.14841,0.75004 1.72263,1.57036 1.72265,2.46093 -2e-5,0.37505 -0.12893,0.87896 -0.38672,1.51172 l -1.96875,4.78125 16.69922,-0.0351 c 1.45309,4e-5 2.17965,0.75004 2.17969,2.25 -4e-5,3.56253 -3.17582,5.34378 -9.52734,5.34375 l -12.86719,0.0351 c -0.28127,0.14066 -0.76174,0.82035 -1.44141,2.03906 l -1.58203,2.91797 c -0.39845,0.72659 -0.6797,1.27737 -0.84375,1.65235 l -0.77344,1.72265 c -1.57032,3.53909 -2.35548,6.09377 -2.35547,7.66407 -1e-5,1.57032 0.41015,2.88282 1.23047,3.9375 0.84374,1.05469 1.95702,1.58204 3.33985,1.58203 1.38279,1e-5 2.73045,-0.26952 4.04297,-0.8086 1.33591,-0.53905 2.63669,-1.1953 3.90234,-1.96875 2.29685,-1.42967 4.10153,-2.75389 5.41406,-3.97265 1.31247,-1.21873 2.40231,-2.14451 3.26953,-2.77735 -3e-5,2e-5 0.82028,-0.57419 2.46094,-1.72265 1.26559,-0.84373 2.26168,-1.2656 2.98828,-1.26563"
         style="font-size:72px;font-weight:bold;font-family:Sarina;-inkscape-font-specification:Sarina Bold"
         id="path3024" />
      <path
         d="m 560.38535,230.03436 c -4e-5,1.26565 1.07808,1.89846 3.23437,1.89844 1.59371,2e-5 3.67964,-0.77342 6.25781,-2.32031 l 2.8125,-1.54688 c 0.86714,-0.49216 1.61714,-0.73825 2.25,-0.73828 0.6562,3e-5 1.17182,0.19924 1.54688,0.59766 0.37494,0.39846 0.56244,0.94924 0.5625,1.65234 -6e-5,0.70315 -0.23443,1.52346 -0.70313,2.46094 -0.4688,0.91408 -1.11333,1.88674 -1.93359,2.91797 -0.82036,1.00783 -1.7813,2.01564 -2.88281,3.02344 -1.10161,0.98438 -2.28521,1.87501 -3.55078,2.67187 -2.81255,1.75782 -5.42583,2.63673 -7.83985,2.63672 -2.55472,10e-6 -4.59378,-0.43359 -6.11719,-1.30078 -0.46878,-0.28124 -0.92581,-0.57421 -1.37109,-0.87891 -2.50784,2.85938 -6.14065,5.48438 -10.89844,7.875 -5.06251,2.53125 -9.48047,3.79688 -13.2539,3.79688 -3.96094,0 -7.08985,-1.5586 -9.38672,-4.67578 -1.85156,-2.53125 -2.77734,-5.09765 -2.77735,-7.69922 10e-6,-3.74999 2.00392,-7.3242 6.01172,-10.72266 2.95313,-2.48435 5.80078,-4.37107 8.54297,-5.66016 2.76562,-1.28903 5.26171,-2.28512 7.48828,-2.98828 4.71092,-1.47653 8.9531,-2.21481 12.72657,-2.21484 1.68747,3e-5 3.18746,0.32816 4.5,0.98437 1.3359,0.63285 2.32027,1.27738 2.95312,1.9336 1.49996,1.47659 2.24996,3.36331 2.25,5.66015 -4e-5,0.67972 -0.0704,1.20706 -0.21094,1.58204 -0.14066,0.37502 -0.21097,0.72658 -0.21093,1.05468 m -28.75782,6.64453 -0.0351,0.10547 0,0.0352 c -1e-5,1.00783 0.22264,1.66407 0.66797,1.96875 1.07811,0.65626 2.21483,0.83204 3.41015,0.52734 1.1953,-0.32811 2.33202,-0.72655 3.41016,-1.19531 2.67185,-1.14842 5.08591,-2.60155 7.24219,-4.35937 -0.37503,-0.74999 -0.56253,-1.52342 -0.5625,-2.32032 -3e-5,-1.68748 0.73825,-3.37497 2.21484,-5.0625 -1.87502,3e-5 -4.40627,0.87893 -7.59375,2.63672 -3.51564,1.94533 -6.15236,3.94924 -7.91016,6.01172 -0.56251,0.70314 -0.84376,1.25392 -0.84375,1.65234"
         style="font-size:72px;font-weight:bold;font-family:Sarina;-inkscape-font-specification:Sarina Bold"
         id="path3026" />
      <path
         d="m 569.03378,240.08905 c -0.44531,1e-5 -0.8789,-0.10546 -1.30078,-0.31641 -0.44531,-0.21092 -0.85546,-0.55076 -1.23047,-1.01953 -0.8203,-1.03123 -1.23046,-2.43748 -1.23047,-4.21875 10e-6,-1.89842 1.13673,-4.2656 3.41016,-7.10156 2.20313,-2.74216 4.76953,-5.10935 7.69922,-7.10156 3.14062,-2.15622 5.83593,-3.23434 8.08594,-3.23438 1.99217,4e-5 3.33982,0.56254 4.04297,1.6875 l 0.49218,0.77344 c 0.37498,0.58597 0.74998,0.87894 1.125,0.87891 0.37498,3e-5 0.96092,-0.0351 1.75782,-0.10547 l 4.99218,-0.35156 c 0.77341,-0.0703 1.38279,-0.10544 1.82813,-0.10547 0.44528,3e-5 0.94919,0.16409 1.51172,0.49218 0.5859,0.30472 1.10153,0.71488 1.54687,1.23047 0.98434,1.17191 1.47653,2.46097 1.47656,3.86719 -3e-5,1.45315 -1.6055,3.7383 -4.8164,6.85547 l -2.32031,2.32031 c -1.66409,1.71095 -2.49612,2.78908 -2.4961,3.23438 -2e-5,0.44532 0.21092,0.84376 0.63281,1.19531 0.42186,0.32814 0.87889,0.4922 1.3711,0.49219 0.49216,1e-5 1.04294,-0.1289 1.65234,-0.38672 0.63279,-0.28124 1.40622,-0.67968 2.32031,-1.19531 0.91404,-0.53905 1.957,-1.18358 3.12891,-1.9336 3.2109,-2.10936 5.35543,-3.56248 6.43359,-4.35937 l 2.91797,-2.07422 c 1.99215,-1.40623 3.41011,-2.10935 4.25391,-2.10938 0.8437,3e-5 1.53511,0.18753 2.07422,0.5625 0.53901,0.35159 0.80854,0.97268 0.80859,1.86328 -5e-5,0.89065 -0.45708,2.08596 -1.37109,3.58594 -0.91411,1.50002 -1.9102,2.8008 -2.98828,3.90235 -1.05473,1.10157 -2.08598,2.1211 -3.09375,3.05859 -1.00786,0.93751 -2.20317,1.95704 -3.58594,3.05859 -1.35941,1.07813 -2.87113,2.1797 -4.53516,3.30469 -1.66409,1.10157 -3.4219,2.09766 -5.27343,2.98828 -4.19534,2.03906 -8.05081,3.05859 -11.56641,3.0586 -5.13282,-1e-5 -8.26173,-1.32422 -9.38672,-3.97266 -0.35157,-0.79687 -0.52735,-1.6875 -0.52734,-2.67188 -1e-5,-0.98436 0.18749,-2.03905 0.5625,-3.16406 0.37499,-1.14843 0.86718,-2.28514 1.47656,-3.41015 1.21874,-2.22655 2.66014,-4.1953 4.32422,-5.90625 1.40623,-1.47655 2.10936,-2.35545 2.10937,-2.63672 -10e-6,-0.44529 -0.25782,-0.72654 -0.77343,-0.84375 -0.49221,-0.11717 -1.23049,-0.17576 -2.21485,-0.17578 -0.42188,2e-5 -1.32423,0.60939 -2.70703,1.82812 l -3.44531,3.16406 c -3.65625,3.32814 -6.04688,4.9922 -7.17188,4.99219"
         style="font-size:72px;font-weight:bold;font-family:Sarina;-inkscape-font-specification:Sarina Bold"
         id="path3028" />
    </g>
  </g>
</svg>
